<svg width="95" height="146" viewBox="0 0 95 146" fill="none" xmlns="http://www.w3.org/2000/svg">
<path d="M95 108.974C80.485 110.292 72.1455 111.505 67.0257 115.514C61.0086 120.208 59.5835 128.805 58 146C56.3638 128.172 54.8859 119.628 48.2882 115.039C43.1683 111.453 34.8816 110.292 21 109.026C35.4622 107.708 43.8545 106.495 48.9215 102.539C54.9914 97.7919 56.4165 89.2473 58 72C59.4779 87.876 60.7974 96.3678 65.7061 101.273C70.6148 106.178 79.1655 107.55 95 108.974Z" fill="white"/>
<path d="M40.4708 0.0718994C34.0714 11.8929 30.5357 17.7878 26.9708 17.7878C23.4058 17.7878 19.8701 11.8929 13.5 0.0718994C19.8701 11.8929 22.9091 18.1309 21.1266 21.4059C19.3442 24.6808 12.7695 25.0239 0 25.0239C13.237 25.0239 19.8117 25.367 21.3019 28.9851C22.7045 32.3536 19.6656 38.5604 13.5 49.976C19.8993 38.1549 23.4351 32.26 27 32.26C30.5649 32.26 34.1007 38.1549 40.5 49.976C33.7208 37.4064 30.7403 31.1684 33.2532 28.0494C35.474 25.3046 42.0195 25.0239 54 25.0239C40.5 25.0239 33.9253 24.6496 32.6104 20.8133C31.4123 17.3824 34.4513 11.2067 40.4708 0.0718994Z" fill="white"/>
</svg>
