<?xml version="1.0" encoding="UTF-8" standalone="no"?>
<svg
   width="994.29749"
   height="998.65948"
   viewBox="0 0 994.29749 998.65948"
   fill="none"
   version="1.1"
   id="svg62"
   sodipodi:docname="spring_promo.svg"
   inkscape:version="1.1.2 (0a00cf5339, 2022-02-04)"
   xmlns:inkscape="http://www.inkscape.org/namespaces/inkscape"
   xmlns:sodipodi="http://sodipodi.sourceforge.net/DTD/sodipodi-0.dtd"
   xmlns="http://www.w3.org/2000/svg"
   xmlns:svg="http://www.w3.org/2000/svg">
  <defs
     id="defs66" />
  <sodipodi:namedview
     id="namedview64"
     pagecolor="#ffffff"
     bordercolor="#666666"
     borderopacity="1.0"
     inkscape:pageshadow="2"
     inkscape:pageopacity="0.0"
     inkscape:pagecheckerboard="0"
     showgrid="false"
     fit-margin-top="0"
     fit-margin-left="0"
     fit-margin-right="0"
     fit-margin-bottom="0"
     inkscape:zoom="0.39186603"
     inkscape:cx="-68.901099"
     inkscape:cy="714.52991"
     inkscape:window-width="1920"
     inkscape:window-height="1008"
     inkscape:window-x="1920"
     inkscape:window-y="0"
     inkscape:window-maximized="1"
     inkscape:current-layer="svg62" />
  <g
     opacity="0.5"
     id="g60"
     transform="translate(-12.8525,-23.081143)">
    <path
       opacity="0.0344828"
       d="m 129.929,801.637 c 4.908,5.849 12.306,9.474 22.031,10.933 9.735,1.46 21.738,0.738 35.736,-2.06 27.994,-5.596 63.759,-19.449 104.877,-40.367 82.222,-41.829 185.65,-111.801 290.775,-200.011 105.125,-88.211 191.994,-177.916 247.465,-251.626 27.74,-36.861 47.594,-69.677 57.965,-96.274 5.186,-13.3 7.982,-24.995 8.234,-34.835 0.253,-9.831 -2.033,-17.747 -6.94,-23.595 -4.908,-5.848 -12.306,-9.473 -22.031,-10.932 -9.735,-1.46 -21.738,-0.738 -35.736,2.06 -27.994,5.595 -63.759,19.449 -104.877,40.367 -82.222,41.828 -185.65,111.801 -290.775,200.011 -105.125,88.21 -191.994,177.916 -247.465,251.625 -27.74,36.861 -47.594,69.677 -57.965,96.275 -5.186,13.299 -7.982,24.995 -8.234,34.835 -0.253,9.831 2.033,17.746 6.94,23.594 z"
       stroke="#2b2c3b"
       stroke-width="2"
       id="path2" />
    <path
       opacity="0.0689655"
       d="m 159.17,837.517 c 5.399,5.398 13.084,8.365 22.9,8.971 9.825,0.606 21.719,-1.16 35.42,-5.167 27.401,-8.014 61.822,-24.932 100.961,-49.354 78.263,-48.835 175.198,-127.556 272.235,-224.593 97.037,-97.037 175.758,-193.972 224.593,-272.236 24.422,-39.138 41.34,-73.56 49.354,-100.96 4.007,-13.701 5.773,-25.595 5.167,-35.42 -0.606,-9.816 -3.573,-17.502 -8.971,-22.9 -5.398,-5.398 -13.084,-8.365 -22.9,-8.971 -9.824,-0.606 -21.719,1.16 -35.42,5.167 -27.4,8.014 -61.821,24.932 -100.96,49.354 -78.264,48.835 -175.199,127.556 -272.236,224.593 -97.037,97.037 -175.757,193.972 -224.593,272.236 -24.422,39.138 -41.34,73.56 -49.354,100.96 -4.007,13.701 -5.772,25.595 -5.166,35.42 0.605,9.816 3.572,17.502 8.97,22.9 z"
       stroke="#2b2c3b"
       stroke-width="2"
       id="path4" />
    <path
       opacity="0.103448"
       d="m 191.083,870.728 c 5.848,4.907 13.763,7.193 23.595,6.941 9.839,-0.253 21.535,-3.048 34.834,-8.234 26.598,-10.372 59.414,-30.225 96.275,-57.966 73.709,-55.47 163.415,-142.34 251.625,-247.465 88.21,-105.125 158.183,-208.552 200.012,-290.774 20.917,-41.118 34.771,-76.883 40.366,-104.878 2.798,-13.998 3.52,-26.001 2.06,-35.735 -1.458,-9.726 -5.084,-17.124 -10.932,-22.031 -5.848,-4.907 -13.763,-7.193 -23.595,-6.941 -9.84,0.253 -21.535,3.048 -34.834,8.234 -26.598,10.372 -59.414,30.225 -96.275,57.966 -73.71,55.47 -163.415,142.34 -251.626,247.465 -88.21,105.125 -158.182,208.552 -200.011,290.774 -20.918,41.119 -34.771,76.883 -40.367,104.878 -2.797,13.998 -3.52,26.001 -2.06,35.735 1.459,9.726 5.085,17.124 10.933,22.031 z"
       stroke="#2b2c3b"
       stroke-width="2"
       id="path6" />
    <path
       opacity="0.137931"
       d="m 225.422,901.047 c 6.253,4.379 14.337,5.966 24.109,4.858 9.781,-1.109 21.188,-4.914 33.985,-11.239 25.592,-12.65 56.553,-35.288 90.856,-66.136 68.595,-61.683 150.388,-156.041 229.1,-268.454 78.712,-112.413 139.404,-221.545 173.908,-307.1 17.254,-42.785 27.938,-79.621 31.072,-107.997 1.567,-14.188 1.241,-26.208 -1.062,-35.778 -2.301,-9.5621 -6.558,-16.616 -12.811,-20.9948 -6.254,-4.3789 -14.338,-5.966 -24.11,-4.8579 -9.781,1.1092 -21.188,4.9135 -33.985,11.2389 -25.592,12.6498 -56.553,35.2878 -90.856,66.1358 -68.594,61.684 -150.387,156.041 -229.1,268.454 -78.712,112.413 -139.404,221.545 -173.907,307.1 -17.255,42.785 -27.939,79.621 -31.073,107.997 -1.567,14.188 -1.24,26.209 1.063,35.779 2.3,9.561 6.557,16.615 12.811,20.994 z"
       stroke="#2b2c3b"
       stroke-width="2"
       id="path8" />
    <path
       opacity="0.172414"
       d="m 261.926,928.272 c 6.612,3.817 14.803,4.693 24.442,2.738 9.646,-1.957 20.678,-6.742 32.875,-14.158 24.393,-14.833 53.262,-40.083 84.747,-73.803 62.957,-67.427 136.215,-168.554 204.83,-287.4 68.616,-118.845 119.565,-232.852 146.481,-321.088 13.46,-44.126 20.892,-81.753 21.541,-110.294 0.325,-14.271 -1.048,-26.2174 -4.176,-35.5502 -3.126,-9.3248 -7.981,-15.9808 -14.592,-19.798 -6.612,-3.8171 -14.804,-4.6937 -24.442,-2.738 -9.646,1.9573 -20.679,6.7413 -32.875,14.158 -24.393,14.8327 -53.263,40.0832 -84.747,73.8022 -62.957,67.428 -136.215,168.555 -204.831,287.4 -68.615,118.846 -119.565,232.853 -146.48,321.089 -13.46,44.126 -20.892,81.753 -21.542,110.294 -0.324,14.271 1.049,26.217 4.177,35.55 3.125,9.325 7.981,15.981 14.592,19.798 z"
       stroke="#2b2c3b"
       stroke-width="2"
       id="path10" />
    <path
       opacity="0.206897"
       d="m 300.319,952.227 c 6.919,3.227 15.156,3.386 24.587,0.598 9.439,-2.791 20.013,-8.518 31.516,-16.97 23.008,-16.902 49.567,-44.572 77.992,-80.908 56.841,-72.658 121.007,-179.785 179.003,-304.158 57.996,-124.373 98.816,-242.387 117.938,-332.633 9.563,-45.132 13.688,-83.263 11.847,-111.752 -0.92,-14.2452 -3.329,-26.0263 -7.259,-35.0509 -3.926,-9.0169 -9.343,-15.2245 -16.262,-18.4509 -6.919,-3.2264 -15.156,-3.3856 -24.587,-0.5974 -9.439,2.7906 -20.013,8.518 -31.517,16.9694 -23.007,16.9022 -49.566,44.5728 -77.991,80.9078 -56.841,72.658 -121.007,179.785 -179.003,304.159 -57.996,124.373 -98.816,242.387 -117.938,332.633 -9.563,45.131 -13.688,83.263 -11.847,111.752 0.92,14.245 3.329,26.026 7.259,35.05 3.926,9.017 9.343,15.225 16.262,18.451 z"
       stroke="#2b2c3b"
       stroke-width="2"
       id="path12" />
    <path
       opacity="0.241379"
       d="m 340.307,972.762 c 7.174,2.611 15.394,2.051 24.546,-1.548 9.16,-3.603 19.194,-10.23 29.918,-19.652 21.446,-18.843 45.492,-48.723 70.643,-87.397 50.292,-77.336 104.877,-189.648 151.812,-318.602 46.936,-128.955 77.314,-250.077 88.499,-341.647 5.593,-45.793 6.379,-84.139 2.062,-112.359 C 705.628,77.4464 702.202,65.9201 697.501,57.2723 692.803,48.6319 686.866,42.92 679.692,40.309 c -7.174,-2.6111 -15.393,-2.0519 -24.545,1.5478 -9.16,3.6026 -19.194,10.2297 -29.918,19.6516 -21.446,18.8431 -45.493,48.7226 -70.643,87.3976 -50.292,77.335 -104.877,189.647 -151.813,318.602 -46.935,128.955 -77.314,250.077 -88.498,341.646 -5.593,45.793 -6.379,84.139 -2.062,112.36 2.158,14.11 5.585,25.636 10.286,34.284 4.697,8.641 10.634,14.352 17.808,16.964 z"
       stroke="#2b2c3b"
       stroke-width="2"
       id="path14" />
    <path
       opacity="0.275862"
       d="m 381.587,989.744 c 7.375,1.976 15.514,0.702 24.318,-3.681 8.811,-4.388 18.229,-11.864 28.091,-22.185 19.722,-20.64 41.073,-52.502 62.757,-93.222 43.361,-81.424 87.949,-198.066 123.467,-330.621 35.518,-132.554 55.224,-255.863 58.385,-348.059 1.581,-46.106 -0.979,-84.375 -7.738,-112.1114 -3.381,-13.8688 -7.799,-25.0526 -13.236,-33.2577 -5.432,-8.1982 -11.844,-13.3708 -19.219,-15.3467 -7.374,-1.9759 -15.513,-0.7024 -24.317,3.6812 -8.811,4.3873 -18.229,11.8637 -28.091,22.1843 -19.722,20.6406 -41.073,52.5023 -62.757,93.2223 -43.361,81.424 -87.949,198.066 -123.467,330.621 -35.518,132.554 -55.224,255.863 -58.385,348.059 -1.581,46.106 0.978,84.375 7.738,112.111 3.38,13.869 7.798,25.053 13.235,33.258 5.433,8.198 11.845,13.371 19.219,15.347 z"
       stroke="#2b2c3b"
       stroke-width="2"
       id="path16" />
    <path
       opacity="0.310345"
       d="m 423.845,1003.08 c 7.518,1.33 15.516,-0.65 23.904,-5.785 8.395,-5.139 17.126,-13.408 26.05,-24.549 17.849,-22.281 36.342,-55.882 54.394,-98.336 36.099,-84.894 70.352,-204.978 94.181,-340.124 23.83,-135.146 32.715,-259.703 27.828,-351.824 -2.443,-46.068 -8.328,-83.9683 -17.48,-111.0101 -4.576,-13.5213 -9.952,-24.2775 -16.084,-31.9776 -6.126,-7.6934 -12.965,-12.2876 -20.483,-13.6132 -7.518,-1.3257 -15.516,0.6524 -23.904,5.7865 -8.395,5.1386 -17.126,13.4074 -26.05,24.5483 -17.849,22.2809 -36.342,55.8821 -54.394,98.3371 -36.099,84.893 -70.352,204.978 -94.182,340.123 -23.829,135.146 -32.714,259.704 -27.827,351.824 2.443,46.069 8.328,83.969 17.48,111.01 4.576,13.522 9.952,24.278 16.084,31.978 6.126,7.693 12.965,12.292 20.483,13.612 z"
       stroke="#2b2c3b"
       stroke-width="2"
       id="path18" />
    <path
       opacity="0.344828"
       d="m 466.758,1012.7 c 7.605,0.67 15.4,-2 23.309,-7.85 7.915,-5.849 15.892,-14.847 23.812,-26.723 15.838,-23.752 31.332,-58.837 45.616,-102.704 28.562,-87.716 52.219,-210.329 64.179,-347.038 11.96,-136.708 9.955,-261.566 -2.942,-352.91 -6.449,-45.68 -15.615,-82.9227 -27.089,-109.064 -5.736,-13.0711 -12.03,-23.3178 -18.809,-30.4541 -6.773,-7.1303 -13.986,-11.1109 -21.592,-11.7763 -7.605,-0.6653 -15.4,2.0022 -23.308,7.848 -7.916,5.8507 -15.893,14.8489 -23.812,26.7253 -15.839,23.7517 -31.333,58.8371 -45.616,102.7031 -28.563,87.717 -52.219,210.33 -64.18,347.038 -11.96,136.709 -9.955,261.566 2.942,352.91 6.449,45.681 15.615,82.923 27.089,109.065 5.737,13.071 12.03,23.317 18.809,30.45 6.774,7.13 13.987,11.11 21.592,11.78 z"
       stroke="#2b2c3b"
       stroke-width="2"
       id="path20" />
    <path
       opacity="0.37931"
       d="m 510,1018.56 c 7.634,0 15.167,-3.34 22.536,-9.85 7.376,-6.52 14.538,-16.179 21.392,-28.7 13.708,-25.042 26.085,-61.344 36.492,-106.288 20.808,-89.873 33.688,-214.08 33.688,-351.311 C 624.108,385.18 611.228,260.972 590.42,171.1 580.013,126.156 567.636,89.8536 553.928,64.8117 547.074,52.2904 539.912,42.6312 532.536,36.1128 525.167,29.6001 517.634,26.2632 510,26.2632 c -7.634,0 -15.167,3.3369 -22.536,9.8496 -7.375,6.5184 -14.538,16.1776 -21.392,28.6989 -13.708,25.0419 -26.085,61.3443 -36.491,106.2883 -20.809,89.872 -33.689,214.08 -33.689,351.311 0,137.231 12.88,261.438 33.689,351.311 10.406,44.944 22.783,81.246 36.491,106.288 6.854,12.521 14.017,22.18 21.392,28.7 7.369,6.51 14.902,9.85 22.536,9.85 z"
       stroke="#2b2c3b"
       stroke-width="2"
       id="path22" />
    <path
       opacity="0.413793"
       d="m 553.242,1020.64 c 7.606,-0.66 14.819,-4.65 21.592,-11.78 6.78,-7.13 13.073,-17.378 18.81,-30.449 11.473,-26.142 20.639,-63.384 27.088,-109.065 12.897,-91.344 14.903,-216.201 2.942,-352.91 C 611.714,379.728 588.057,257.115 559.495,169.398 545.211,125.532 529.717,90.4466 513.879,66.6948 505.959,54.8185 497.982,45.8202 490.067,39.9695 c -7.909,-5.8457 -15.704,-8.5133 -23.309,-7.8479 -7.605,0.6654 -14.818,4.646 -21.592,11.7762 -6.779,7.1364 -13.072,17.3831 -18.809,30.4542 -11.474,26.141 -20.639,63.384 -27.089,109.064 -12.897,91.344 -14.902,216.202 -2.942,352.91 11.961,136.709 35.617,259.321 64.18,347.038 14.283,43.867 29.777,78.952 45.616,102.704 7.919,11.876 15.896,20.872 23.812,26.722 7.908,5.85 15.703,8.52 23.308,7.85 z"
       stroke="#2b2c3b"
       stroke-width="2"
       id="path24" />
    <path
       opacity="0.448276"
       d="m 596.156,1018.96 c 7.518,-1.32 14.357,-5.92 20.483,-13.61 6.131,-7.702 11.507,-18.459 16.083,-31.98 9.152,-27.042 15.037,-64.942 17.481,-111.01 4.886,-92.121 -3.998,-216.678 -27.828,-351.824 C 598.545,375.39 564.292,255.306 528.194,170.412 510.141,127.958 491.648,94.3565 473.8,72.0755 464.875,60.9347 456.145,52.6659 447.749,47.5273 c -8.388,-5.1342 -16.385,-7.1123 -23.904,-5.7866 -7.518,1.3257 -14.357,5.9198 -20.483,13.6133 -6.132,7.7 -11.508,18.4562 -16.084,31.9776 -9.151,27.0414 -15.036,64.9414 -17.48,111.0104 -4.886,92.12 3.998,216.677 27.828,351.823 23.83,135.146 58.082,255.231 94.181,340.124 18.053,42.455 36.545,76.056 54.394,98.337 8.924,11.141 17.655,19.414 26.05,24.544 8.389,5.14 16.386,7.12 23.905,5.79 z"
       stroke="#2b2c3b"
       stroke-width="2"
       id="path26" />
    <path
       opacity="0.482759"
       d="m 638.413,1013.56 c 7.374,-1.98 13.786,-7.15 19.219,-15.347 5.437,-8.205 9.855,-19.389 13.235,-33.257 6.76,-27.737 9.319,-66.005 7.738,-112.111 C 675.444,760.649 655.738,637.34 620.22,504.785 584.702,372.23 540.114,255.588 496.753,174.164 475.069,133.444 453.719,101.583 433.996,80.942 424.134,70.6213 414.716,63.1449 405.905,58.7576 c -8.804,-4.3836 -16.943,-5.6571 -24.317,-3.6812 -7.374,1.9759 -13.787,7.1486 -19.219,15.3467 -5.437,8.2052 -9.855,19.389 -13.235,33.2579 -6.76,27.736 -9.32,66.005 -7.739,112.111 3.161,92.196 22.867,215.505 58.385,348.06 35.518,132.554 80.106,249.196 123.467,330.621 21.684,40.719 43.035,72.581 62.757,93.222 9.862,10.32 19.28,17.795 28.091,22.185 8.804,4.38 16.944,5.66 24.318,3.68 z"
       stroke="#2b2c3b"
       stroke-width="2"
       id="path28" />
    <path
       opacity="0.517241"
       d="m 679.693,1004.51 c 7.174,-2.61 13.111,-8.318 17.808,-16.959 4.701,-8.648 8.128,-20.174 10.286,-34.284 4.317,-28.221 3.531,-66.567 -2.062,-112.36 C 694.541,749.338 664.162,628.216 617.227,499.261 570.291,370.306 515.706,257.994 465.414,180.659 440.264,141.984 416.217,112.104 394.771,93.2614 384.047,83.8395 374.014,77.2124 364.853,73.6097 c -9.152,-3.5996 -17.371,-4.1588 -24.545,-1.5478 -7.174,2.6111 -13.111,8.323 -17.808,16.9634 -4.702,8.6478 -8.128,20.1737 -10.287,34.2847 -4.317,28.22 -3.531,66.566 2.062,112.359 11.185,91.57 41.563,212.692 88.499,341.646 46.935,128.955 101.52,241.267 151.812,318.603 25.151,38.674 49.197,68.554 70.644,87.397 10.723,9.422 20.757,16.049 29.917,19.655 9.152,3.6 17.372,4.16 24.546,1.54 z"
       stroke="#2b2c3b"
       stroke-width="2"
       id="path30" />
    <path
       opacity="0.551724"
       d="m 719.681,991.919 c 6.919,-3.226 12.336,-9.434 16.262,-18.451 3.93,-9.024 6.339,-20.806 7.259,-35.051 1.841,-28.489 -2.284,-66.62 -11.847,-111.751 C 712.233,736.419 671.413,618.406 613.417,494.032 555.421,369.659 491.255,262.532 434.414,189.874 405.989,153.539 379.43,125.868 356.423,108.966 344.919,100.515 334.345,94.7872 324.906,91.9966 c -9.431,-2.7882 -17.668,-2.629 -24.587,0.5974 -6.919,3.2264 -12.336,9.434 -16.262,18.451 -3.93,9.025 -6.339,20.806 -7.259,35.051 -1.841,28.489 2.284,66.62 11.847,111.751 19.122,90.247 59.942,208.26 117.938,332.634 57.996,124.373 122.162,231.5 179.003,304.158 28.425,36.336 54.984,64.006 77.991,80.908 11.504,8.451 22.078,14.179 31.517,16.969 9.431,2.789 17.668,2.629 24.587,-0.597 z"
       stroke="#2b2c3b"
       stroke-width="2"
       id="path32" />
    <path
       opacity="0.586207"
       d="m 758.074,975.903 c 6.611,-3.817 11.466,-10.473 14.592,-19.798 3.128,-9.333 4.501,-21.279 4.176,-35.55 -0.649,-28.541 -8.081,-66.168 -21.541,-110.294 C 728.386,722.024 677.436,608.018 608.821,489.172 540.205,370.327 466.947,269.2 403.99,201.772 c -31.484,-33.719 -60.354,-58.97 -84.747,-73.802 -12.196,-7.417 -23.229,-12.201 -32.875,-14.158 -9.638,-1.956 -17.83,-1.079 -24.442,2.738 -6.611,3.817 -11.466,10.473 -14.592,19.798 -3.128,9.333 -4.501,21.279 -4.176,35.55 0.649,28.541 8.081,66.168 21.541,110.294 26.916,88.236 77.865,202.243 146.481,321.088 68.615,118.846 141.873,219.973 204.83,287.4 31.484,33.72 60.354,58.97 84.747,73.803 12.197,7.416 23.229,12.2 32.875,14.158 9.639,1.955 17.83,1.079 24.442,-2.738 z"
       stroke="#2b2c3b"
       stroke-width="2"
       id="path34" />
    <path
       opacity="0.62069"
       d="m 794.578,956.615 c 6.254,-4.379 10.511,-11.433 12.811,-20.994 2.303,-9.57 2.63,-21.591 1.063,-35.779 C 805.317,871.466 794.634,834.63 777.379,791.845 742.876,706.29 682.184,597.158 603.472,484.745 524.759,372.332 442.966,277.975 374.372,216.291 c -34.303,-30.847 -65.264,-53.485 -90.857,-66.136 -12.796,-6.325 -24.203,-10.129 -33.984,-11.239 -9.772,-1.108 -17.856,0.479 -24.11,4.858 -6.253,4.379 -10.51,11.433 -12.811,20.995 -2.303,9.57 -2.629,21.59 -1.062,35.778 3.134,28.376 13.818,65.212 31.072,107.997 34.504,85.555 95.196,194.687 173.908,307.1 78.712,112.413 160.505,206.771 229.1,268.454 34.303,30.848 65.264,53.486 90.856,66.136 12.797,6.325 24.204,10.13 33.985,11.239 9.772,1.108 17.856,-0.479 24.109,-4.858 z"
       stroke="#2b2c3b"
       stroke-width="2"
       id="path36" />
    <path
       opacity="0.655172"
       d="m 828.918,934.236 c 5.848,-4.907 9.473,-12.305 10.932,-22.031 1.46,-9.734 0.738,-21.737 -2.06,-35.735 C 832.194,848.475 818.341,812.711 797.423,771.592 755.595,689.37 685.622,585.943 597.412,480.818 509.202,375.693 419.496,288.823 345.787,233.353 c -36.862,-27.74 -69.678,-47.594 -96.275,-57.966 -13.3,-5.186 -24.995,-7.981 -34.835,-8.234 -9.831,-0.252 -17.746,2.034 -23.595,6.941 -5.848,4.907 -9.473,12.305 -10.932,22.031 -1.46,9.734 -0.738,21.737 2.06,35.735 5.595,27.995 19.449,63.76 40.367,104.878 41.828,82.222 111.801,185.65 200.011,290.774 88.21,105.125 177.916,191.995 251.625,247.466 36.862,27.74 69.677,47.593 96.275,57.965 13.3,5.186 24.995,7.982 34.835,8.234 9.831,0.252 17.746,-2.033 23.595,-6.941 z"
       stroke="#2b2c3b"
       stroke-width="2"
       id="path38" />
    <path
       opacity="0.689655"
       d="m 860.829,908.963 c 5.399,-5.398 8.366,-13.084 8.971,-22.9 0.606,-9.824 -1.159,-21.719 -5.167,-35.419 C 856.619,823.243 839.702,788.822 815.28,749.683 766.444,671.42 687.723,574.484 590.687,477.447 493.65,380.41 396.714,301.69 318.451,252.854 279.312,228.432 244.891,211.515 217.49,203.501 c -13.7,-4.008 -25.595,-5.773 -35.419,-5.167 -9.816,0.605 -17.502,3.572 -22.9,8.971 -5.399,5.398 -8.366,13.084 -8.971,22.9 -0.606,9.824 1.16,21.719 5.167,35.419 8.014,27.401 24.931,61.822 49.354,100.961 48.835,78.263 127.556,175.199 224.592,272.235 97.037,97.037 193.973,175.758 272.236,224.593 39.139,24.422 73.56,41.34 100.961,49.354 13.7,4.007 25.595,5.773 35.419,5.167 9.816,-0.606 17.502,-3.572 22.9,-8.971 z"
       stroke="#2b2c3b"
       stroke-width="2"
       id="path40" />
    <path
       opacity="0.724138"
       d="m 890.072,881.021 c 4.907,-5.849 7.192,-13.764 6.94,-23.595 -0.252,-9.84 -3.048,-21.535 -8.234,-34.835 C 878.406,795.994 858.553,763.178 830.813,726.317 775.342,652.607 688.472,562.902 583.348,474.691 478.223,386.481 374.795,316.508 292.573,274.68 251.455,253.762 215.69,239.909 187.695,234.313 c -13.997,-2.798 -26.001,-3.52 -35.735,-2.06 -9.726,1.459 -17.124,5.084 -22.031,10.932 -4.907,5.849 -7.193,13.764 -6.941,23.595 0.253,9.84 3.049,21.536 8.235,34.835 10.371,26.598 30.225,59.413 57.965,96.275 55.471,73.709 142.34,163.415 247.465,251.625 105.125,88.21 208.553,158.183 290.775,200.011 41.118,20.918 76.883,34.772 104.877,40.367 13.998,2.798 26.001,3.52 35.735,2.06 9.726,-1.459 17.124,-5.084 22.032,-10.932 z"
       stroke="#2b2c3b"
       stroke-width="2"
       id="path42" />
    <path
       opacity="0.758621"
       d="m 916.42,850.651 c 4.379,-6.253 5.967,-14.337 4.858,-24.109 -1.109,-9.781 -4.913,-21.188 -11.238,-33.985 C 897.389,766.965 874.751,736.004 843.904,701.701 782.22,633.106 687.863,551.313 575.45,472.601 463.037,393.889 353.904,333.197 268.35,298.693 225.565,281.439 188.729,270.755 160.353,267.621 c -14.188,-1.567 -26.209,-1.241 -35.779,1.062 -9.562,2.301 -16.615,6.558 -20.994,12.811 -4.3791,6.254 -5.9663,14.338 -4.8581,24.11 1.1091,9.781 4.9131,21.188 11.2391,33.985 12.65,25.592 35.288,56.553 66.135,90.856 61.684,68.594 156.042,150.387 268.454,229.1 112.413,78.712 221.546,139.404 307.1,173.907 42.785,17.255 79.622,27.939 107.997,31.073 14.189,1.567 26.209,1.24 35.779,-1.063 9.562,-2.3 16.616,-6.557 20.994,-12.811 z"
       stroke="#2b2c3b"
       stroke-width="2"
       id="path44" />
    <path
       opacity="0.793103"
       d="m 939.677,818.116 c 3.817,-6.612 4.693,-14.804 2.738,-24.442 -1.958,-9.646 -6.742,-20.679 -14.158,-32.875 C 913.424,736.406 888.174,707.536 854.454,676.052 787.027,613.095 685.899,539.837 567.054,471.221 448.209,402.606 334.202,351.656 245.966,324.741 201.84,311.281 164.213,303.849 135.672,303.199 c -14.271,-0.324 -26.218,1.049 -35.55,4.177 -9.3252,3.126 -15.9812,7.981 -19.7984,14.592 -3.8171,6.612 -4.6937,14.803 -2.738,24.442 1.9573,9.646 6.7413,20.678 14.158,32.875 14.8324,24.393 40.0824,53.263 73.8024,84.747 67.428,62.957 168.555,136.215 287.4,204.83 118.845,68.616 232.852,119.565 321.089,146.481 44.126,13.46 81.753,20.892 110.294,21.541 14.271,0.325 26.217,-1.048 35.55,-4.176 9.324,-3.126 15.98,-7.981 19.798,-14.592 z"
       stroke="#2b2c3b"
       stroke-width="2"
       id="path46" />
    <path
       opacity="0.827586"
       d="m 959.663,783.693 c 3.226,-6.919 3.385,-15.156 0.597,-24.588 -2.79,-9.439 -8.518,-20.012 -16.969,-31.516 C 926.389,704.582 898.718,678.023 862.383,649.597 789.725,592.756 682.598,528.591 558.224,470.595 433.851,412.598 315.837,371.779 225.591,352.656 180.46,343.093 142.328,338.969 113.839,340.809 c -14.2446,0.921 -26.0258,3.33 -35.0504,7.26 -9.0169,3.926 -15.2245,9.342 -18.4509,16.261 -3.2263,6.92 -3.3856,15.157 -0.5974,24.588 2.7907,9.439 8.518,20.012 16.9694,31.516 16.9023,23.007 44.5723,49.566 80.9083,77.992 72.658,56.841 179.785,121.006 304.158,179.003 124.373,57.996 242.387,98.815 332.633,117.938 45.132,9.563 83.263,13.687 111.752,11.847 14.245,-0.921 26.026,-3.33 35.051,-7.259 9.017,-3.927 15.224,-9.343 18.451,-16.262 z"
       stroke="#2b2c3b"
       stroke-width="2"
       id="path48" />
    <path
       opacity="0.862069"
       d="m 976.226,747.673 c 2.611,-7.174 2.052,-15.394 -1.548,-24.546 -3.603,-9.16 -10.23,-19.194 -19.652,-29.917 C 936.183,671.763 906.304,647.717 867.629,622.566 790.294,572.274 677.982,517.69 549.027,470.754 420.072,423.818 298.95,393.44 207.38,382.255 c -45.792,-5.593 -84.139,-6.378 -112.3587,-2.062 -14.1105,2.159 -25.6368,5.585 -34.2846,10.287 -8.6404,4.697 -14.3523,10.634 -16.9634,17.808 -2.6111,7.174 -2.0518,15.393 1.5478,24.546 3.6027,9.16 10.2298,19.194 19.6517,29.917 18.8431,21.447 48.7232,45.493 87.3972,70.644 77.336,50.292 189.648,104.876 318.602,151.812 128.955,46.936 250.077,77.314 341.647,88.498 45.793,5.594 84.139,6.379 112.359,2.062 14.11,-2.158 25.637,-5.585 34.285,-10.286 8.64,-4.697 14.352,-10.634 16.963,-17.808 z"
       stroke="#2b2c3b"
       stroke-width="2"
       id="path50" />
    <path
       opacity="0.896552"
       d="m 989.242,710.362 c 1.976,-7.374 0.702,-15.514 -3.681,-24.317 -4.388,-8.812 -11.864,-18.23 -22.185,-28.091 C 942.736,638.231 910.874,616.88 870.154,595.196 788.73,551.836 672.088,507.247 539.533,471.73 406.979,436.212 283.67,416.505 191.474,413.344 c -46.106,-1.581 -84.375,0.979 -112.1115,7.739 -13.8687,3.38 -25.0526,7.798 -33.2577,13.235 -8.1981,5.432 -13.3708,11.845 -15.3467,19.219 -1.9759,7.374 -0.7024,15.514 3.6812,24.317 4.3873,8.812 11.8637,18.23 22.1844,28.091 20.6405,19.723 52.5023,41.074 93.2223,62.758 81.424,43.36 198.066,87.948 330.621,123.466 132.554,35.518 255.863,55.225 348.059,58.386 46.106,1.58 84.375,-0.979 112.111,-7.739 13.869,-3.38 25.053,-7.798 33.258,-13.235 8.198,-5.433 13.371,-11.845 15.347,-19.219 z"
       stroke="#2b2c3b"
       stroke-width="2"
       id="path52" />
    <path
       opacity="0.931035"
       d="m 998.61,672.074 c 1.326,-7.518 -0.652,-15.516 -5.787,-23.904 -5.138,-8.395 -13.407,-17.126 -24.548,-26.05 C 945.994,604.271 912.393,585.779 869.938,567.726 785.045,531.627 664.961,497.374 529.815,473.545 394.669,449.715 270.111,440.83 177.991,445.717 c -46.069,2.444 -83.9685,8.329 -111.0102,17.48 -13.5214,4.576 -24.2776,9.952 -31.9777,16.084 -7.6934,6.126 -12.2876,12.965 -13.6132,20.483 -1.3257,7.518 0.6524,15.516 5.7866,23.904 5.1385,8.395 13.4073,17.126 24.5482,26.051 22.281,17.848 55.8823,36.341 98.3373,54.393 84.893,36.099 204.977,70.352 340.123,94.182 135.146,23.829 259.703,32.714 351.824,27.827 46.068,-2.443 83.968,-8.328 111.01,-17.48 13.522,-4.576 24.278,-9.952 31.978,-16.083 7.693,-6.127 12.287,-12.965 13.613,-20.484 z"
       stroke="#2b2c3b"
       stroke-width="2"
       id="path54" />
    <path
       opacity="0.965517"
       d="m 1004.26,633.129 c 0.66,-7.605 -2,-15.4 -7.849,-23.309 -5.85,-7.915 -14.849,-15.892 -26.725,-23.811 -23.752,-15.839 -58.837,-31.333 -102.703,-45.617 -87.717,-28.562 -210.33,-52.218 -347.038,-64.179 -136.709,-11.96 -261.566,-9.955 -352.91,2.942 -45.681,6.449 -82.9234,15.615 -109.0647,27.089 -13.0711,5.737 -23.3178,12.03 -30.4541,18.809 -7.1303,6.774 -11.1109,13.987 -11.7763,21.592 -0.6653,7.605 2.0023,15.4 7.848,23.309 5.8507,7.915 14.849,15.892 26.7253,23.812 23.7517,15.838 58.8368,31.332 102.7038,45.616 87.716,28.562 210.329,52.218 347.037,64.179 136.709,11.96 261.567,9.955 352.911,-2.942 45.68,-6.449 82.923,-15.615 109.064,-27.089 13.071,-5.737 23.318,-12.03 30.454,-18.809 7.13,-6.773 11.107,-13.987 11.777,-21.592 z"
       stroke="#2b2c3b"
       stroke-width="2"
       id="path56" />
    <path
       d="m 1006.15,593.857 c 0,-7.634 -3.34,-15.167 -9.852,-22.536 -6.518,-7.375 -16.177,-14.538 -28.699,-21.392 C 942.558,536.221 906.255,523.844 861.311,513.438 771.439,492.629 647.231,479.749 510,479.749 c -137.231,0 -261.438,12.88 -351.311,33.689 -44.944,10.406 -81.2461,22.783 -106.288,36.491 -12.5213,6.854 -22.1806,14.017 -28.6989,21.392 -6.5128,7.369 -9.8496,14.902 -9.8496,22.536 0,7.634 3.3368,15.167 9.8496,22.536 6.5183,7.376 16.1776,14.538 28.6989,21.392 25.0419,13.708 61.344,26.085 106.288,36.491 89.873,20.809 214.08,33.689 351.311,33.689 137.231,0 261.439,-12.88 351.311,-33.689 44.944,-10.406 81.247,-22.783 106.288,-36.491 12.522,-6.854 22.181,-14.016 28.699,-21.392 6.512,-7.369 9.852,-14.902 9.852,-22.536 z"
       stroke="#2b2c3b"
       stroke-width="2"
       id="path58" />
  </g>
</svg>
