<?xml version="1.0" encoding="UTF-8" standalone="no"?>
<svg
   width="2320.2622"
   height="1158.6479"
   viewBox="0 0 2320.2622 1158.6479"
   fill="none"
   version="1.1"
   id="svg31"
   sodipodi:docname="circles.svg"
   inkscape:version="1.1.2 (0a00cf5339, 2022-02-04)"
   xmlns:inkscape="http://www.inkscape.org/namespaces/inkscape"
   xmlns:sodipodi="http://sodipodi.sourceforge.net/DTD/sodipodi-0.dtd"
   xmlns="http://www.w3.org/2000/svg"
   xmlns:svg="http://www.w3.org/2000/svg">
  <sodipodi:namedview
     id="namedview33"
     pagecolor="#ffffff"
     bordercolor="#666666"
     borderopacity="1.0"
     inkscape:pageshadow="2"
     inkscape:pageopacity="0.0"
     inkscape:pagecheckerboard="0"
     showgrid="false"
     fit-margin-top="0"
     fit-margin-left="0"
     fit-margin-right="0"
     fit-margin-bottom="0"
     inkscape:zoom="0.25835962"
     inkscape:cx="1188.2662"
     inkscape:cy="574.78022"
     inkscape:window-width="1920"
     inkscape:window-height="997"
     inkscape:window-x="0"
     inkscape:window-y="0"
     inkscape:window-maximized="1"
     inkscape:current-layer="svg31" />
  <path
     d="m 585.23836,724.90708 c 8.686,34.303 32.994,62.964 69.597,85.404 36.605,22.45 85.479,38.66 143.219,48.05 115.475,18.79 266.32504,10.32 425.16504,-29.91 158.84,-40.22 295.54,-104.56 388.16,-176.048 46.31,-35.744 81.58,-73.26 103.09,-110.423 21.5,-37.159 29.24,-73.935 20.56,-108.238 -8.69,-34.302 -33,-62.963 -69.6,-85.407 -36.61,-22.445 -85.48,-38.654 -143.22,-48.049 -115.48,-18.791 -266.33,-10.313 -425.17,29.91 -158.83004,40.222 -295.53504,104.562 -388.15304,176.05 -46.309,35.744 -81.578,73.261 -103.088,110.423 -21.509,37.16 -29.247,73.935 -20.56,108.238 z"
     stroke="url(#paint0_linear_17_1040)"
     id="path2"
     style="stroke:url(#paint0_linear_17_1040)" />
  <path
     d="m 324.63136,790.90108 c 12.64,49.91 48.006,91.6 101.221,124.23 53.218,32.63 124.259,56.19 208.17,69.84 167.821,27.31002 387.02704,14.99 617.82704,-43.46 230.8,-58.45 429.45,-151.94 564.05,-255.829 67.3,-51.945 118.56,-106.475 149.84,-160.503 31.27,-54.025 42.53,-107.518 29.89,-157.431 -12.64,-49.913 -48,-91.598 -101.22,-124.228 -53.22,-32.632 -124.26,-56.19 -208.17,-69.843 -167.82,-27.308 -387.03,-14.986 -617.83,43.461 -230.79604,58.446 -429.44604,151.939 -564.04404,255.829 -67.299,51.945 -118.566,106.475 -149.839,160.503 -31.271,54.025 -42.534,107.519 -29.895,157.431 z"
     stroke="url(#paint1_linear_17_1040)"
     id="path4"
     style="stroke:url(#paint1_linear_17_1040)" />
  <path
     d="m 7.5213612,871.20108 c 17.4499998,68.91 66.2719998,126.44 139.7009988,171.47002 73.433,45.03 171.447,77.53 287.203,96.36 231.511,37.67 533.894,20.67 852.26404,-59.95 318.36,-80.62002 592.39,-209.59002 778.07,-352.90402 92.84,-71.659 163.57,-146.891 206.73,-221.441 43.15,-74.548 58.7,-148.383 41.25,-217.29 -17.45,-68.908 -66.27,-126.441 -139.7,-171.467 -73.43,-45.027005 -171.45,-77.526005 -287.2,-96.362005 -231.51,-37.67 -533.9,-20.6709999 -852.26,59.951 C 715.20736,160.18908 441.17936,289.15608 255.50036,432.47308 c -92.84,71.659 -163.571999,146.891 -206.723999,221.441 -43.1489998,74.547 -58.7039998,148.387 -41.2549998,217.287 z"
     stroke="url(#paint2_linear_17_1040)"
     id="path6"
     style="stroke:url(#paint2_linear_17_1040)" />
  <defs
     id="defs29">
    <linearGradient
       id="paint0_linear_17_1040"
       x1="1814.85"
       y1="626.79602"
       x2="818.789"
       y2="1040.02"
       gradientUnits="userSpaceOnUse"
       gradientTransform="translate(-119.64064,-212.91892)">
      <stop
         stop-color="#484848"
         id="stop8" />
      <stop
         offset="0.491388"
         stop-color="#484848"
         stop-opacity="0.36"
         id="stop10" />
      <stop
         offset="1"
         stop-color="#484848"
         id="stop12" />
    </linearGradient>
    <linearGradient
       id="paint1_linear_17_1040"
       x1="2057.2"
       y1="551.85901"
       x2="609.995"
       y2="1152.25"
       gradientUnits="userSpaceOnUse"
       gradientTransform="translate(-119.64064,-212.91892)">
      <stop
         stop-color="#484848"
         id="stop15" />
      <stop
         offset="0.491388"
         stop-color="#484848"
         stop-opacity="0.36"
         id="stop17" />
      <stop
         offset="1"
         stop-color="#484848"
         id="stop19" />
    </linearGradient>
    <linearGradient
       id="paint2_linear_17_1040"
       x1="2352.1001"
       y1="460.67599"
       x2="355.93201"
       y2="1288.8101"
       gradientUnits="userSpaceOnUse"
       gradientTransform="translate(-119.64064,-212.91892)">
      <stop
         stop-color="#484848"
         id="stop22" />
      <stop
         offset="0.491388"
         stop-color="#484848"
         stop-opacity="0.36"
         id="stop24" />
      <stop
         offset="1"
         stop-color="#484848"
         id="stop26" />
    </linearGradient>
  </defs>
</svg>
