<?xml version="1.0" encoding="UTF-8" standalone="no"?>
<svg
   height="2.7092mm"
   style="shape-rendering:geometricPrecision; text-rendering:geometricPrecision; image-rendering:optimizeQuality; fill-rule:evenodd; clip-rule:evenodd"
   version="1.1"
   viewBox="0 0 270.92 270.92"
   width="2.7092mm"
   xml:space="preserve"
   id="svg9"
   sodipodi:docname="business_card_credit_credit_card_dollar_money_payment_icon_123246 (1).svg"
   inkscape:version="1.1.2 (0a00cf5339, 2022-02-04)"
   xmlns:inkscape="http://www.inkscape.org/namespaces/inkscape"
   xmlns:sodipodi="http://sodipodi.sourceforge.net/DTD/sodipodi-0.dtd"
   xmlns="http://www.w3.org/2000/svg"
   xmlns:svg="http://www.w3.org/2000/svg"><sodipodi:namedview
     id="namedview11"
     pagecolor="#ffffff"
     bordercolor="#666666"
     borderopacity="1.0"
     inkscape:pageshadow="2"
     inkscape:pageopacity="0.0"
     inkscape:pagecheckerboard="0"
     inkscape:document-units="mm"
     showgrid="false"
     inkscape:zoom="79.984408"
     inkscape:cx="5.1259991"
     inkscape:cy="5.1259991"
     inkscape:window-width="1920"
     inkscape:window-height="1008"
     inkscape:window-x="1920"
     inkscape:window-y="0"
     inkscape:window-maximized="1"
     inkscape:current-layer="Layer_x0020_1" /><defs
     id="defs4"><style
       type="text/css"
       id="style2">
   <![CDATA[
    .fil0 {fill:black;fill-rule:nonzero}
   ]]>
  </style></defs><g
     id="Layer_x0020_1"><path
       class="fil0"
       d="M218.45 48.17l-166.76 0c-4.39,0 -7.93,3.55 -7.93,7.94 0,4.39 3.54,7.92 7.93,7.92l166.76 0c11.12,0 20.17,9.07 20.17,20.19l0 0.77 -186.93 0c-4.39,0 -7.93,3.53 -7.93,7.92 0,4.38 3.54,7.93 7.93,7.93l186.93 0 0 85.87c0,11.11 -9.05,20.18 -20.17,20.18l-165.99 0c-11.12,0 -20.17,-9.07 -20.17,-20.18l0 -103.28c0,-4.39 -3.55,-7.94 -7.93,-7.94 -4.39,0 -7.94,3.55 -7.94,7.94l0 103.28c0,19.88 16.17,36.04 36.04,36.04l165.99 0c19.87,0 36.05,-16.16 36.05,-36.04l0 -102.49c0,-19.88 -16.18,-36.05 -36.05,-36.05zm-4.63 113.28c4.38,0 7.94,-3.55 7.94,-7.93 0,-4.4 -3.56,-7.93 -7.94,-7.93l-78.75 0c-4.39,0 -7.94,3.53 -7.94,7.93 0,4.38 3.55,7.93 7.94,7.93l78.75 0zm-150.31 -20.23l24.6 0 0 24.59 -24.6 0 0 -24.59zm32.53 40.47c4.39,0 7.94,-3.55 7.94,-7.95l0 -40.46c0,-4.38 -3.55,-7.94 -7.94,-7.94l-40.46 0c-4.39,0 -7.93,3.56 -7.93,7.94l0 40.46c0,4.4 3.54,7.95 7.93,7.95l40.46 0z"
       id="path6"
       style="fill:#f9f9f9" /></g></svg>
